<svg width="132" height="227" viewBox="0 0 132 227" fill="none" xmlns="http://www.w3.org/2000/svg">
<path d="M88.963 22.7429C88.963 22.7429 99.5195 -4.82174 108.465 2.39341C117.417 9.60855 98.5318 30.2873 98.5318 30.2873L88.956 22.7429H88.963Z" fill="#6A3D2C"/>
<path d="M96.9698 21.447C98.4618 19.1774 100.633 17.1879 102.357 15.0654C104.045 12.992 106.875 11.3318 107.652 8.7049C107.975 7.61912 107.092 6.49132 105.971 6.49832C102.679 6.51233 100.507 9.91676 98.9171 12.4175C97.1939 15.1215 95.7999 17.8254 95.4777 21.0547C95.3936 21.9023 96.5705 22.0634 96.9698 21.461V21.447Z" fill="#E1A984"/>
<path d="M64.9639 23.5764C64.9639 23.5764 58.4843 -3.13366 48.4532 0.305788C38.429 3.74524 39.1926 23.7585 54.7156 32.837L64.9639 23.5764Z" fill="#6A3D2C"/>
<path d="M57.3635 22.5817C58.4843 19.6116 57.4616 17.1808 56.4038 14.3298C55.4021 11.6329 53.777 6.98858 51.08 5.70666C49.9382 5.16728 48.6703 5.60859 48.271 6.84848C47.4304 9.46134 49.3568 12.1863 50.4286 14.54C51.8015 17.5591 53.9801 20.0389 55.6893 22.7988C56.1306 23.5204 57.0903 23.3102 57.3635 22.5817Z" fill="#E1A984"/>
<path d="M129.767 134.087C134.65 190.407 125.921 256.773 119.414 270.005C112.913 283.245 92.8718 291.952 90.6722 279.056C88.4726 266.159 80.7952 251.841 64.8308 252.395C48.8664 252.941 42.8701 271.476 42.5689 283.637C42.2747 295.798 19.3894 305.254 1.04331 270.601C-17.3028 235.947 -20.7212 200.635 -9.73737 172.993C1.24646 145.358 28.5029 95.1956 38.422 61.7327C48.341 28.2699 62.358 14.1688 81.6147 15.878C108.045 18.2107 124.885 77.7671 129.767 134.087Z" fill="#6A3D2C"/>
<path d="M49.3918 125.975L27.7043 145.498C27.7043 145.498 24.3349 177.903 30.7025 196.193C37.07 214.483 49.3638 202.19 48.313 184.061C46.5758 153.981 49.6019 126.683 49.3918 125.982V125.975Z" fill="#512D22"/>
<path d="M107.127 120.295C106.826 120.967 111.379 152.209 105.754 181.812C102.371 199.654 112.962 213.44 121.641 196.124C130.327 178.814 130.531 145.968 130.531 145.968L107.127 120.288V120.295Z" fill="#512D22"/>
<path d="M28.8952 110.347C38.2468 92.9399 42.758 76.1699 45.6581 56.8221C48.0328 40.8998 55.325 29.3626 65.4402 18.8411C54.1972 24.5852 45.3149 38.4691 38.415 61.7326C28.4959 95.1955 1.23945 145.358 -9.74438 172.993C-20.7282 200.628 -17.3168 235.947 1.03631 270.601C3.77526 275.777 6.61929 279.952 9.47732 283.301C0.405857 262.167 -7.79699 227.247 -7.5378 212.543C-6.89335 175.143 11.81 142.907 28.8952 110.34V110.347Z" fill="#512D22"/>
<path d="M70.2036 26.7569C69.8183 26.6799 69.6572 27.2473 70.0425 27.3453C71.2754 27.6746 72.4592 28.1019 73.594 28.6973C74.8339 29.3488 75.6605 30.3085 76.6552 31.2471C77.0335 31.6114 77.6219 31.1491 77.3767 30.6867C76.0878 28.277 72.6834 27.2543 70.2106 26.7499L70.2036 26.7569Z" fill="#87533E"/>
<path d="M84.1926 29.2505C83.7513 27.6183 82.7706 26.3854 81.4186 25.3977C80.9283 25.0405 80.3048 25.8531 80.7742 26.2383C81.8599 27.149 82.5955 28.2137 82.8687 29.6147C83.0368 30.4764 84.4308 30.1121 84.1996 29.2505H84.1926Z" fill="#87533E"/>
<path d="M85.3344 38.9664C85.2924 38.1958 85.0332 37.5373 84.718 36.8298C84.3678 36.0383 83.0998 36.7318 83.5272 37.5303C83.7793 37.9927 84.0315 38.434 84.1086 38.9664C84.2066 39.7229 85.3765 39.7789 85.3344 38.9664Z" fill="#87533E"/>
<path d="M90.7563 34.0491C90.9944 34.9808 91.2957 35.9194 91.3307 36.8861C91.3587 37.5726 92.4235 37.5796 92.4024 36.8861C92.3674 35.8144 92.0522 34.7986 91.786 33.7619C91.6179 33.0964 90.5811 33.3766 90.7563 34.0491Z" fill="#87533E"/>
<path d="M71.8988 36.2207C72.6343 36.7321 73.1527 37.3905 73.4819 38.2171C73.7341 38.8406 74.7428 38.5954 74.5117 37.9299C74.1194 36.7811 73.4819 35.8985 72.5153 35.1559C71.8988 34.6866 71.2403 35.7584 71.8988 36.2137V36.2207Z" fill="#87533E"/>
<path d="M63.5629 42.9734C63.3037 42.0908 63.2196 41.1731 62.9675 40.2905C62.7503 39.5339 61.5665 39.8562 61.7906 40.6197C62.0428 41.5023 62.1269 42.42 62.386 43.3026C62.6032 44.0592 63.787 43.7369 63.5629 42.9734Z" fill="#87533E"/>
<path d="M87.2678 54.7557C87.2257 53.747 86.9596 52.8224 86.6443 51.8697C86.3361 50.938 84.8581 51.3373 85.1733 52.276C85.4395 53.0885 85.7057 53.8871 85.7407 54.7557C85.7827 55.7364 87.3168 55.7434 87.2678 54.7557Z" fill="#87533E"/>
<path d="M94.1607 44.9276C94.2027 45.3409 94.2798 45.9503 94.1116 46.3426C94.1116 46.3426 94.0836 46.3846 94.0906 46.4196C94.0906 46.4336 94.0906 46.4547 94.0906 46.4687C94.1187 46.8329 94.609 47.1481 94.8892 46.7979C95.2465 46.3566 95.4076 45.6631 95.5126 45.1167C95.7158 44.066 94.0696 43.9959 94.1607 44.9346V44.9276Z" fill="#87533E"/>
<path d="M54.8487 66.0057C55.7523 63.7221 56.3968 61.3824 57.2374 59.0708C57.4546 58.4754 56.5719 58.1741 56.2567 58.6575C55.5562 59.7363 54.8557 60.808 54.2323 61.9358C53.5318 63.1967 53.3146 64.3455 53.1955 65.7746C53.1115 66.7973 54.5265 66.8113 54.8487 65.9987V66.0057Z" fill="#87533E"/>
<path d="M58.064 67.5818C57.8048 69.0108 57.3354 70.3978 57.0973 71.8128C56.9712 72.5623 57.8958 73.3329 58.5053 72.6324C59.556 71.4205 59.7942 69.6763 60.1374 68.1492C60.4386 66.7902 58.3161 66.2368 58.071 67.5818H58.064Z" fill="#87533E"/>
<path d="M86.7494 59.8765C86.0279 59.204 84.9421 60.2898 85.6706 60.9622C86.189 61.4456 86.7074 61.9009 87.2117 62.3983C87.6881 62.8606 88.5847 62.3983 88.3605 61.7328C88.0803 60.8922 87.3798 60.4649 86.7494 59.8835V59.8765Z" fill="#87533E"/>
<path d="M89.6985 59.5262C89.6705 60.0236 89.6495 60.5209 89.6215 61.0183C89.5934 61.6137 90.5741 61.6137 90.5391 61.0183C90.5111 60.5209 90.4901 60.0236 90.4621 59.5262C90.434 59.0359 89.7265 59.0359 89.6985 59.5262Z" fill="#87533E"/>
<path d="M99.3164 35.9053C99.0012 36.809 98.9101 37.7196 98.8541 38.6653C98.819 39.2537 99.8067 39.2607 99.7717 38.6653C99.7227 37.7826 99.7087 36.935 99.9048 36.0664C99.9959 35.6812 99.4425 35.534 99.3164 35.9053Z" fill="#87533E"/>
<path d="M55.9415 21.8325C56.4248 22.6871 56.8521 23.5488 57.4405 24.3403C57.7908 24.8097 58.5683 24.5505 58.4212 23.927C58.183 22.9323 58.134 21.9306 58.0219 20.9149C57.8958 19.8221 57.3144 19.0446 56.5229 18.302C55.6753 17.5035 54.4704 18.5052 54.9608 19.5069C55.339 20.2774 55.5141 21.076 55.9415 21.8255V21.8325Z" fill="#87533E"/>
<path d="M97.1028 17.6854C95.8629 18.6171 95.2255 19.8079 95.3516 21.391C95.4076 22.1126 96.5634 22.3858 96.7035 21.5732C96.8857 20.4944 97.6492 19.7098 98.2586 18.8342C98.728 18.1617 97.7823 17.181 97.1098 17.6784L97.1028 17.6854Z" fill="#87533E"/>
<path d="M101.894 20.1302C101.166 20.2843 100.689 20.6416 100.374 21.314C100.304 21.4611 100.493 21.6433 100.612 21.5032C100.963 21.0759 101.439 20.8587 101.992 20.8867C102.532 20.9077 102.455 20.0181 101.887 20.1372L101.894 20.1302Z" fill="#87533E"/>
<path d="M25.2876 135.67C25.1195 136.21 24.7062 136.693 24.384 137.149C24.0127 137.681 23.8165 138.192 23.6484 138.823C23.3892 139.796 24.8953 140.504 25.3296 139.53C25.834 138.395 26.3454 137.071 26.1842 135.79C26.1212 135.292 25.4487 135.145 25.2806 135.67H25.2876Z" fill="#87533E"/>
<path d="M115.414 99.987C116.002 101.626 116.142 103.588 116.962 105.115C117.277 105.696 118.041 105.367 118.104 104.806C118.279 103.111 117.648 101.115 117.186 99.4967C116.857 98.3479 115.022 98.8732 115.414 99.987Z" fill="#87533E"/>
<path d="M52.516 85.711C50.6037 87.3782 48.8034 89.949 48.8034 92.5899C48.8034 93.1153 49.5599 93.2064 49.707 92.709C50.4495 90.2012 51.1641 88.1838 53.1605 86.3625C53.6018 85.9632 52.9573 85.3257 52.516 85.711Z" fill="#87533E"/>
<path d="M54.4144 93.3323C54.6525 94.1729 54.6876 94.9995 54.6946 95.8681C54.6946 96.5616 55.7663 96.5616 55.7663 95.8681C55.7663 94.9084 55.7173 93.9837 55.4511 93.0451C55.262 92.3796 54.2252 92.6668 54.4214 93.3323H54.4144Z" fill="#87533E"/>
<path d="M47.2412 100.337C47.2693 100.933 47.2903 101.528 47.3183 102.131C47.3463 102.719 48.2079 102.719 48.2359 102.131C48.264 101.535 48.285 100.94 48.313 100.337C48.341 99.6438 47.2132 99.6438 47.2412 100.337Z" fill="#87533E"/>
<path d="M46.3586 75.0073C45.7842 76.1631 45.497 77.452 44.8035 78.5448C44.3272 79.2944 45.546 80.0089 45.9943 79.2383C46.6528 78.1105 46.884 76.8076 47.4164 75.6237C47.7316 74.9162 46.7159 74.2928 46.3586 75.0073Z" fill="#87533E"/>
<path d="M67.5137 45.166C67.3666 45.8735 67.1705 46.56 66.8833 47.2255C66.575 47.947 66.4139 48.7035 66.0146 49.39C65.6714 49.9714 66.526 50.6789 66.9743 50.1325C67.4647 49.5301 68.0881 48.7175 68.1371 47.9049C68.1932 46.9803 68.1161 46.0766 67.955 45.166C67.913 44.9418 67.5557 44.9488 67.5137 45.166Z" fill="#87533E"/>
<path d="M105.376 53.2988C106.258 53.7331 107.008 54.3285 107.764 54.9449C108.563 55.6034 109.446 54.3145 108.598 53.8662C107.652 53.3618 106.707 52.8785 105.67 52.5983C105.257 52.4932 104.976 53.1026 105.376 53.2988Z" fill="#87533E"/>
<path d="M105.474 58.8606C105.74 59.344 106.048 59.7502 106.44 60.1495C106.854 60.5698 107.505 59.9184 107.092 59.4981C106.763 59.1618 106.496 58.8116 106.272 58.3983C105.985 57.8799 105.194 58.3422 105.481 58.8606H105.474Z" fill="#87533E"/>
<path d="M105.733 44.6547C105.348 43.7441 104.934 42.8895 104.346 42.0909C104.115 41.7827 103.631 42.0419 103.814 42.3991C104.262 43.2537 104.521 44.1364 104.752 45.068C104.934 45.7965 106.041 45.3903 105.733 44.6547Z" fill="#87533E"/>
<path d="M78.2314 44.3322C78.1473 45.53 77.8321 46.6578 77.4958 47.8067C77.3557 48.283 78.1333 48.4931 78.2314 48.0098C78.4835 46.7909 78.7077 45.5861 78.6867 44.3322C78.6867 44.031 78.2454 44.038 78.2314 44.3322Z" fill="#87533E"/>
<path d="M90.2309 43.4778C90.427 44.1573 90.364 44.8298 90.294 45.5232C90.2449 46.0136 91.1135 46.0136 91.0575 45.5232C90.9734 44.7667 90.8754 44.0382 90.5111 43.3587C90.427 43.2046 90.1819 43.3097 90.2309 43.4778Z" fill="#87533E"/>
<path d="M63.5699 109.787C63.2407 111.685 62.7153 113.542 62.3791 115.447C62.309 115.832 62.9044 116 62.9675 115.608C63.3037 113.71 63.8291 111.846 64.1583 109.948C64.2284 109.563 63.633 109.395 63.5699 109.787Z" fill="#87533E"/>
<path d="M69.314 109.948C69.0198 110.943 68.7886 111.952 68.4944 112.946C68.2142 113.906 69.6502 114.277 69.9655 113.353C70.3087 112.372 70.5889 111.37 70.9321 110.397C71.2894 109.374 69.6152 108.905 69.307 109.948H69.314Z" fill="#87533E"/>
<path d="M10.395 168.433C9.84857 170.464 8.84686 172.391 8.80483 174.513C8.78381 175.48 10.1918 175.634 10.458 174.737C11.0394 172.762 11.2075 170.612 11.2986 168.552C11.3196 168.027 10.5281 167.936 10.395 168.433Z" fill="#87533E"/>
<path d="M18.829 190.008C18.773 187.767 17.5821 185.728 17.5681 183.452C17.5611 182.065 15.3545 182.079 15.4246 183.452C15.5507 185.784 16.4683 188.019 17.1758 190.233C17.456 191.115 18.85 190.989 18.829 190.008Z" fill="#87533E"/>
<path d="M8.61571 196.278C7.66303 198.729 6.96253 201.973 7.24973 204.607C7.31278 205.174 8.06231 205.489 8.39155 204.915C9.7225 202.582 9.48433 199.591 10.5771 197.104C11.2005 195.682 9.18311 194.835 8.62271 196.278H8.61571Z" fill="#87533E"/>
<path d="M6.96954 209.237C7.56496 210.806 8.11135 212.684 9.21114 213.98C9.60342 214.435 10.444 213.951 10.2339 213.384C9.67347 211.857 8.78383 210.428 8.14638 208.915C7.85217 208.207 6.68233 208.495 6.96954 209.244V209.237Z" fill="#87533E"/>
<path d="M22.2895 226.518C21.666 225.538 21.0776 224.55 20.5662 223.499C20.0549 222.441 18.4157 223.38 18.9831 224.424C19.5365 225.447 20.174 226.413 20.8394 227.366C21.4489 228.242 22.8849 227.443 22.2895 226.518Z" fill="#87533E"/>
<path d="M18.2056 205.791C17.7783 204.362 15.7048 204.964 15.992 206.4C16.2302 207.598 16.2862 208.803 16.5104 209.994C16.7275 211.135 18.7099 211.198 18.8711 209.994C19.0672 208.543 18.6189 207.171 18.1986 205.791H18.2056Z" fill="#87533E"/>
<path d="M-1.44345 193.791C-2.0739 195.08 -2.41714 196.446 -2.78841 197.826C-3.06861 198.877 -1.40142 199.325 -1.16325 198.274C-0.88305 197.02 -0.651886 195.738 -0.119506 194.561C0.272774 193.679 -1.00213 192.894 -1.44345 193.791Z" fill="#87533E"/>
<path d="M93.0469 118.438C112.346 124.771 123.063 179.157 113.677 204.487C104.276 229.817 68.0881 244.815 44.117 215.667C23.2771 190.316 39.2415 156.98 48.306 140.098C57.1042 123.727 71.0302 111.209 93.0469 118.438Z" fill="#E1A984"/>
<path d="M59.2058 203.976C48.0818 176.012 52.6701 148.798 62.8274 122.326C56.8731 126.676 52.1097 133.022 48.313 140.09C39.2416 156.972 23.2772 190.316 44.124 215.66C54.3443 228.08 66.7712 232.465 78.4065 231.47C69.4261 224.9 63.1636 214.315 59.2058 203.969V203.976Z" fill="#D3976E"/>
<path d="M48.313 184.054C47.3253 166.913 47.8787 150.675 48.5022 139.747C48.4391 139.866 48.3691 139.978 48.306 140.091C40.4534 154.703 27.4591 181.651 37.6164 205.069C43.3115 206.428 49.0345 196.656 48.306 184.047L48.313 184.054Z" fill="#9B7054"/>
<path d="M108.262 136.07C108.864 148.027 108.913 165.182 105.754 181.812C103.372 194.372 107.911 204.894 113.838 204.011C120.079 186.499 117.004 155.712 108.262 136.063V136.07Z" fill="#9B7054"/>
<path d="M51.7735 119.545L27.7113 145.498C27.7113 145.498 28.5659 178.065 37.2451 195.374C45.9243 212.69 56.5229 198.904 53.1395 181.063C47.5215 151.46 52.0817 120.21 51.7805 119.545H51.7735Z" fill="#6A3D2C"/>
<path d="M51.6824 121.226C48.3691 131.391 45.8263 141.849 45.0627 152.49C44.3342 168.083 50.8629 183.676 48.3271 198.54C47.9768 200.11 47.5425 201.658 47.0031 203.15C51.9136 201.742 55.241 192.194 53.1325 181.063C48.229 155.236 51.08 128.154 51.6824 121.226Z" fill="#87533E"/>
<path d="M36.5236 122.347C36.9859 121.016 37.084 119.664 37.3222 118.277C37.5043 117.184 38.1067 115.944 37.6514 114.887C37.5043 114.543 37.007 114.466 36.7128 114.641C35.7461 115.209 35.5709 116.708 35.2767 117.717C34.8494 119.167 34.4642 120.568 34.5762 122.088C34.6603 123.216 36.1524 123.426 36.5306 122.347H36.5236Z" fill="#87533E"/>
<path d="M37.3573 124.603C37.0701 126.62 36.5307 128.841 36.8319 130.865C36.9089 131.384 37.7776 131.37 37.8616 130.865C38.1979 128.918 38.2469 126.893 38.5341 124.925C38.6462 124.154 37.4693 123.818 37.3573 124.596V124.603Z" fill="#87533E"/>
<path d="M33.3364 139.453C33.0352 141.345 32.3767 143.614 32.7409 145.52C32.881 146.262 34.0649 146.241 34.212 145.52C34.3871 144.693 34.3521 143.831 34.4292 142.998C34.5272 141.877 34.6953 140.77 34.8354 139.656C34.9475 138.802 33.4695 138.606 33.3364 139.453Z" fill="#87533E"/>
<path d="M38.3869 160.903C37.7145 159.214 37.6724 157.358 37.3432 155.579C37.2171 154.906 36.0543 155.06 36.1453 155.74C36.3765 157.589 36.3135 159.516 36.9159 161.302C37.2311 162.248 38.7512 161.799 38.3869 160.896V160.903Z" fill="#87533E"/>
<path d="M106.258 113.78C105.957 114.445 110.503 145.694 104.885 175.298C101.502 193.139 112.094 206.925 120.773 189.609C129.459 172.299 130.314 139.733 130.314 139.733L106.258 113.773V113.78Z" fill="#6A3D2C"/>
<path d="M112.507 155.754C114.181 141.379 111.505 127.313 106.244 113.843C106.062 115.258 110.426 146.073 104.878 175.305C103.001 185.189 105.418 193.812 109.425 196.614C108.094 194.358 107.309 191.78 107.428 188.754C108.157 177.511 111.057 166.997 112.507 155.761V155.754Z" fill="#87533E"/>
<path d="M116.458 118.214C116.486 116.96 116.465 115.727 116.219 114.494C116.086 113.822 115.022 114.109 115.183 114.781C115.463 115.916 115.512 117.051 115.54 118.214C115.554 118.802 116.444 118.802 116.458 118.214Z" fill="#87533E"/>
<path d="M120.177 124.715C120.675 126.578 119.981 128.378 119.729 130.228C119.603 131.173 121.018 131.622 121.2 130.634C121.613 128.455 122.426 126.473 121.942 124.224C121.697 123.068 119.862 123.559 120.17 124.715H120.177Z" fill="#87533E"/>
<path d="M115.183 177.336C115.323 177.848 116.079 177.848 116.219 177.336C116.528 176.208 116.289 174.857 116.065 173.736C115.897 172.867 114.524 173.231 114.734 174.1C115.001 175.165 114.895 176.293 115.183 177.336Z" fill="#87533E"/>
<path d="M119.47 162.598C119.47 163.859 119.477 165.869 120.464 166.766C120.955 167.207 121.655 166.997 121.872 166.394C122.286 165.253 121.522 163.796 121.459 162.598C121.396 161.323 119.463 161.309 119.47 162.598Z" fill="#87533E"/>
<path d="M125.564 145.421C125.375 145.001 124.786 145.316 124.864 145.716C125.2 147.446 125.095 149.057 124.793 150.773C124.653 151.586 125.746 152.167 126.194 151.362C127.231 149.477 126.398 147.243 125.564 145.421Z" fill="#87533E"/>
<path d="M120.114 148.896C119.988 147.502 119.862 146.115 119.729 144.721C119.673 144.132 118.867 144.132 118.811 144.721C118.685 146.115 118.559 147.502 118.426 148.896C118.328 149.982 120.205 149.982 120.107 148.896H120.114Z" fill="#87533E"/>
<path d="M97.8173 82.5938C97.8173 82.5938 101.873 100.211 99.6316 101.668C97.383 103.118 83.0998 105.311 82.4974 103.301C81.895 101.29 82.8406 82.972 82.8406 82.972L97.8173 82.5938Z" fill="white"/>
<path d="M90.2939 84.3731C90.2869 84.275 90.42 84.268 90.441 84.3591C91.807 90.8597 92.8578 97.5635 92.7807 104.225C92.7667 104.891 91.8771 104.982 91.751 104.323C90.4691 97.7876 90.8613 90.9928 90.2939 84.3731Z" fill="#6A3D2C"/>
<path d="M70.3717 59.2042C70.6729 62.3774 72.2561 64.8222 73.8952 64.6681C75.5414 64.514 76.6272 61.817 76.326 58.6368C76.0247 55.4635 74.4486 53.0188 72.8025 53.1799C71.1633 53.334 70.0705 56.0309 70.3717 59.2042Z" fill="#171412"/>
<path d="M96.1501 57.9081C96.4513 61.0814 98.0274 63.5261 99.6666 63.372C101.313 63.2179 102.399 60.514 102.097 57.3407C101.796 54.1604 100.22 51.7227 98.5738 51.8768C96.9346 52.0309 95.8489 54.7348 96.1501 57.9081Z" fill="#171412"/>
<path d="M92.9418 71.6518C92.9418 71.6518 108.192 73.1019 110.006 81.2137C111.813 89.3254 105.348 95.3287 101.061 93.8717C96.7806 92.4146 90.5531 83.5603 90.5531 83.5603C90.5531 83.5603 85.1102 98.2008 75.03 96.7157C64.9429 95.2377 63.4998 84.3939 66.8062 79.9388C70.1125 75.4836 77.5028 70.426 92.9418 71.6448V71.6518Z" fill="#E1A984"/>
<path d="M82.1331 75.5818C82.5184 79.6587 87.0156 82.5728 92.1713 82.0824C97.3339 81.5921 101.201 77.8794 100.808 73.8025C100.416 69.7256 95.9189 66.8115 90.7633 67.3019C85.6076 67.7922 81.7408 71.4979 82.1331 75.5818Z" fill="#171412"/>
<path d="M71.4575 82.2015C72.5433 82.2015 72.5433 80.5203 71.4575 80.5203C70.3717 80.5203 70.3717 82.2015 71.4575 82.2015Z" fill="#FFBC8F"/>
<path d="M71.7797 85.0452C71.7377 85.0382 71.7027 85.0312 71.6606 85.0242C71.0722 84.9051 70.6029 85.3745 70.722 85.9629C70.729 85.9979 70.736 86.0399 70.743 86.082C71.1142 87.9033 73.601 85.4165 71.7797 85.0452Z" fill="#FFBC8F"/>
<path d="M74.5887 88.0857C73.7972 88.0857 73.7972 89.3116 74.5887 89.3116C75.3803 89.3116 75.3803 88.0857 74.5887 88.0857Z" fill="#FFBC8F"/>
<path d="M81.1734 83.6794C80.515 82.8668 79.212 83.5673 79.212 84.492C79.212 85.4167 80.515 86.1171 81.1734 85.3046C81.1874 85.2836 81.2015 85.2695 81.2155 85.2485C81.6147 84.7582 81.6147 84.2258 81.2155 83.7355C81.2015 83.7144 81.1874 83.7004 81.1734 83.6794Z" fill="#FFBC8F"/>
<path d="M76.5291 81.7741C76.4731 81.7461 76.41 81.7251 76.354 81.697C75.1351 81.1857 75.1351 83.6865 76.354 83.1751C76.41 83.1541 76.4731 83.1261 76.5291 83.098C77.1806 82.8249 77.1806 82.0473 76.5291 81.7741Z" fill="#FFBC8F"/>
<path d="M79.5763 77.5151C78.7847 77.5151 78.7847 78.741 79.5763 78.741C80.3678 78.741 80.3678 77.5151 79.5763 77.5151Z" fill="#FFBC8F"/>
<path d="M98.9521 81.6761C99.7437 81.6761 99.7437 80.4502 98.9521 80.4502C98.1605 80.4502 98.1605 81.6761 98.9521 81.6761Z" fill="#FFBC8F"/>
<path d="M99.5335 85.3748C98.1535 85.3748 98.1535 87.5183 99.5335 87.5183C100.914 87.5183 100.914 85.3748 99.5335 85.3748Z" fill="#FFBC8F"/>
<path d="M106.581 83.7146C105.201 83.7146 105.201 85.8581 106.581 85.8581C107.961 85.8581 107.961 83.7146 106.581 83.7146Z" fill="#FFBC8F"/>
<path d="M102.861 82.5586C102.272 82.5586 102.272 83.4762 102.861 83.4762C103.449 83.4762 103.456 82.5586 102.861 82.5586Z" fill="#FFBC8F"/>
<path d="M104.528 77.6902C103.835 77.6902 103.835 78.7619 104.528 78.7619C105.222 78.7619 105.222 77.6902 104.528 77.6902Z" fill="#FFBC8F"/>
</svg>
