<svg width="43" height="50" viewBox="0 0 43 50" fill="none" xmlns="http://www.w3.org/2000/svg">
<path d="M24.605 9.88145C24.605 9.88145 29.2055 -2.09079 33.1044 1.04183C37.0052 4.17446 28.7756 13.1587 28.7756 13.1587L24.6031 9.88145H24.605Z" fill="#295654"/>
<path d="M28.0945 9.31582C28.7459 8.32911 29.6894 7.46666 30.4431 6.54301C31.1782 5.64161 32.414 4.92198 32.7527 3.77947C32.8923 3.30652 32.507 2.81687 32.0194 2.82058C30.5846 2.82614 29.6392 4.30436 28.945 5.38937C28.195 6.56527 27.5864 7.73745 27.4468 9.13962C27.4096 9.50871 27.9233 9.57919 28.0963 9.31582H28.0945Z" fill="#E1A984"/>
<path d="M14.1459 10.2432C14.1459 10.2432 11.3208 -1.35999 6.9511 0.134922C2.58322 1.62798 2.91635 10.3211 9.6794 14.2661L14.1459 10.245V10.2432Z" fill="#295654"/>
<path d="M10.8333 9.80921C11.3227 8.51832 10.8742 7.46298 10.4145 6.22403C9.97905 5.05184 9.26999 3.03576 8.09381 2.47934C7.59691 2.24379 7.04417 2.43482 6.86924 2.9764C6.50075 4.1115 7.3438 5.29666 7.80906 6.31676C8.40832 7.62805 9.35746 8.70379 10.1019 9.9038C10.2954 10.2154 10.7123 10.1264 10.8333 9.80921Z" fill="#E1A984"/>
<path d="M42.3874 58.2397C44.5146 82.7017 40.7106 111.524 37.8762 117.274C35.0418 123.023 26.3079 126.805 25.3513 121.204C24.3929 115.603 21.0486 109.386 14.0901 109.625C7.13355 109.862 4.51878 117.912 4.3885 123.194C4.26009 128.476 -5.7114 132.584 -13.7083 117.533C-21.7071 102.48 -23.1978 87.1419 -18.4093 75.1381C-13.6227 63.1362 -1.74365 41.3506 2.57771 26.8151C6.89906 12.2815 13.0107 6.15722 21.4022 6.89911C32.9221 7.91179 40.2602 33.7778 42.3855 58.2397H42.3874Z" fill="#3E7674"/>
<path d="M-1.57434 47.9275C2.50136 40.3657 4.46849 33.0841 5.73214 24.6822C6.76874 17.7678 9.94555 12.7563 14.3544 8.18628C9.45423 10.6809 5.58139 16.7106 2.57766 26.8151C-1.74369 41.3506 -13.6228 63.1362 -18.4094 75.1381C-23.1979 87.1419 -21.7072 102.482 -13.7121 117.533C-12.5173 119.783 -11.2778 121.595 -10.0347 123.047C-13.9875 113.867 -17.5645 98.7024 -17.4509 92.3166C-17.1699 76.0747 -9.02039 62.0697 -1.57434 47.9293V47.9275Z" fill="#295654"/>
<path d="M16.4294 11.6232C16.2619 11.5916 16.1912 11.8364 16.3587 11.881C16.8965 12.0238 17.412 12.2092 17.9052 12.4689C18.4449 12.7508 18.8078 13.1681 19.2377 13.5762C19.4033 13.7338 19.6583 13.5354 19.5522 13.3351C18.9902 12.289 17.5069 11.8439 16.4294 11.625V11.6232Z" fill="#489391"/>
<path d="M22.5243 12.7081C22.3327 11.9996 21.9046 11.4618 21.3147 11.0333C21.1006 10.8775 20.8308 11.2299 21.0318 11.3987C21.5045 11.7956 21.8265 12.2574 21.9456 12.8658C22.02 13.2404 22.6267 13.0828 22.5243 12.7063V12.7081Z" fill="#489391"/>
<path d="M23.0212 16.9277C23.0026 16.592 22.8891 16.3063 22.7533 16.0003C22.5988 15.6553 22.0461 15.9577 22.234 16.3045C22.3438 16.5048 22.4555 16.6977 22.4871 16.9295C22.5318 17.2578 23.0399 17.2819 23.0212 16.9295V16.9277Z" fill="#489391"/>
<path d="M25.3866 14.7891C25.4908 15.1953 25.623 15.5996 25.6379 16.0225C25.649 16.3211 26.1162 16.323 26.105 16.0225C26.0882 15.557 25.9505 15.1155 25.837 14.6667C25.7626 14.3774 25.3122 14.4998 25.3866 14.791V14.7891Z" fill="#489391"/>
<path d="M17.1664 15.7332C17.4865 15.9539 17.7117 16.2414 17.855 16.6012C17.9629 16.8738 18.404 16.7662 18.3053 16.4769C18.1341 15.978 17.855 15.5941 17.4362 15.2732C17.1664 15.0673 16.8816 15.5366 17.1664 15.7332Z" fill="#489391"/>
<path d="M13.5355 18.6674C13.4238 18.2834 13.3866 17.8865 13.2749 17.5026C13.18 17.1743 12.6645 17.3134 12.7613 17.6454C12.8729 18.0293 12.9083 18.4263 13.02 18.8102C13.1149 19.1385 13.6304 18.9994 13.5336 18.6674H13.5355Z" fill="#489391"/>
<path d="M23.868 23.7846C23.8475 23.3487 23.734 22.9444 23.5963 22.5308C23.4623 22.1265 22.8184 22.3008 22.9542 22.7089C23.0715 23.0631 23.185 23.4081 23.2017 23.7846C23.2204 24.2112 23.8885 24.213 23.868 23.7846Z" fill="#489391"/>
<path d="M26.8699 19.5149C26.8866 19.6949 26.9201 19.9582 26.8475 20.1289C26.8475 20.1418 26.8364 20.1474 26.8382 20.1622C26.8382 20.1678 26.8382 20.1771 26.8382 20.1826C26.8494 20.3403 27.0634 20.4757 27.1844 20.3255C27.3407 20.1326 27.4096 19.834 27.4561 19.5947C27.5436 19.1384 26.8271 19.1069 26.8661 19.5149H26.8699Z" fill="#489391"/>
<path d="M9.73521 28.6698C10.1279 27.6794 10.4108 26.663 10.7755 25.6577C10.8704 25.3981 10.4871 25.2683 10.3494 25.4797C10.0423 25.9471 9.73893 26.4145 9.46536 26.9041C9.15828 27.4513 9.06523 27.952 9.01498 28.5715C8.97962 29.0166 9.59563 29.0222 9.73521 28.668V28.6698Z" fill="#489391"/>
<path d="M11.1384 29.3542C11.0268 29.9737 10.8202 30.5765 10.716 31.1923C10.662 31.5168 11.064 31.8525 11.3283 31.5465C11.7861 31.0198 11.8903 30.263 12.0373 29.6009C12.1676 29.0111 11.2427 28.77 11.1366 29.3542H11.1384Z" fill="#489391"/>
<path d="M23.6391 26.0084C23.3246 25.7172 22.8519 26.1864 23.1683 26.4795C23.3935 26.6872 23.6205 26.8875 23.842 27.1027C24.0485 27.3048 24.4412 27.1027 24.3426 26.8133C24.2198 26.4479 23.9146 26.2643 23.6391 26.0102V26.0084Z" fill="#489391"/>
<path d="M24.9251 25.8544C24.9139 26.0696 24.9028 26.2866 24.8916 26.5017C24.8786 26.7595 25.3047 26.7595 25.2917 26.5017C25.2805 26.2866 25.2694 26.0696 25.2582 25.8544C25.247 25.6411 24.9363 25.6411 24.9251 25.8544Z" fill="#489391"/>
<path d="M29.118 15.5977C28.9803 15.9909 28.9412 16.3841 28.917 16.7977C28.9021 17.0537 29.3302 17.0555 29.3172 16.7977C29.2967 16.4138 29.2892 16.0466 29.3749 15.6682C29.4139 15.5013 29.1739 15.4364 29.118 15.5977Z" fill="#489391"/>
<path d="M10.2135 9.48459C10.4257 9.85553 10.6118 10.2302 10.8686 10.5752C11.0212 10.781 11.3599 10.666 11.2948 10.3953C11.1905 9.9631 11.1701 9.52724 11.1198 9.08767C11.0659 8.61287 10.8128 8.27345 10.4685 7.95258C10.0981 7.60575 9.5733 8.03975 9.78732 8.47562C9.95295 8.81132 10.0274 9.1563 10.2135 9.48459Z" fill="#489391"/>
<path d="M28.1522 7.68369C27.6125 8.08616 27.3333 8.60548 27.3873 9.29359C27.4115 9.60889 27.9158 9.72574 27.9772 9.37334C28.0572 8.90595 28.3885 8.56283 28.6528 8.18446C28.8575 7.89327 28.4443 7.46483 28.1503 7.68369H28.1522Z" fill="#489391"/>
<path d="M30.2402 8.74454C29.9239 8.81131 29.7173 8.9671 29.5777 9.2583C29.5479 9.32321 29.6317 9.40111 29.6819 9.3399C29.8345 9.15629 30.043 9.06169 30.2831 9.07097C30.5194 9.08024 30.4859 8.6926 30.2384 8.74454H30.2402Z" fill="#489391"/>
<path d="M36.1305 43.4298C36.3854 44.142 36.4468 44.9933 36.806 45.6573C36.9419 45.9114 37.2769 45.7667 37.3029 45.5238C37.3774 44.7874 37.1038 43.9194 36.9028 43.2183C36.7595 42.7213 35.9592 42.9476 36.1323 43.4298H36.1305Z" fill="#489391"/>
<path d="M8.72281 37.2295C7.89092 37.9528 7.10556 39.0712 7.10556 40.2156C7.10556 40.4437 7.43497 40.4845 7.49824 40.2675C7.82206 39.1769 8.13286 38.3015 9.00383 37.5095C9.19552 37.3352 8.9145 37.0607 8.72095 37.2276L8.72281 37.2295Z" fill="#489391"/>
<path d="M9.54725 40.5382C9.65147 40.9017 9.66822 41.2634 9.66822 41.6399C9.66822 41.9404 10.1353 41.9404 10.1353 41.6399C10.1353 41.2226 10.1149 40.8201 9.99763 40.4158C9.91574 40.1265 9.46351 40.2507 9.54725 40.5401V40.5382Z" fill="#489391"/>
<path d="M6.42256 43.58C6.43372 43.8396 6.44489 44.0974 6.45605 44.3571C6.46722 44.613 6.84501 44.613 6.85618 44.3571C6.86735 44.0974 6.87851 43.8396 6.88968 43.58C6.90271 43.2795 6.40953 43.2795 6.42256 43.58Z" fill="#489391"/>
<path d="M6.0373 32.5797C5.78792 33.0804 5.66137 33.6424 5.35988 34.1172C5.1533 34.4418 5.6837 34.7515 5.87911 34.4177C6.16385 33.928 6.26807 33.3624 6.49884 32.8467C6.63656 32.5407 6.19177 32.2681 6.03916 32.5797H6.0373Z" fill="#489391"/>
<path d="M15.2588 19.6188C15.1937 19.9267 15.108 20.2253 14.9834 20.5146C14.8475 20.8262 14.7786 21.1564 14.6056 21.4531C14.4567 21.7072 14.8289 22.0133 15.0243 21.774C15.2383 21.5125 15.51 21.1582 15.5324 20.8077C15.5566 20.4071 15.5231 20.0139 15.4523 19.6188C15.4356 19.5224 15.2793 19.5261 15.2588 19.6188Z" fill="#489391"/>
<path d="M31.7589 23.1521C32.1422 23.3413 32.4698 23.5991 32.7992 23.868C33.1472 24.1536 33.5324 23.5954 33.1621 23.3988C32.7508 23.1799 32.3395 22.9685 31.8873 22.8498C31.7086 22.8034 31.5839 23.0686 31.7589 23.1539V23.1521Z" fill="#489391"/>
<path d="M31.7998 25.5687C31.917 25.7802 32.051 25.9545 32.2204 26.127C32.4009 26.3106 32.6838 26.0287 32.5033 25.8451C32.3581 25.6986 32.2446 25.5465 32.1459 25.3666C32.0212 25.1422 31.677 25.3425 31.7998 25.5687Z" fill="#489391"/>
<path d="M31.9152 19.3981C31.7477 19.0031 31.5672 18.6303 31.3104 18.2834C31.2099 18.148 30.9977 18.263 31.0796 18.417C31.275 18.7879 31.3885 19.1718 31.489 19.5762C31.569 19.8933 32.051 19.7171 31.9152 19.3963V19.3981Z" fill="#489391"/>
<path d="M19.9282 19.2572C19.8909 19.7765 19.7551 20.268 19.6081 20.7651C19.5466 20.9728 19.8872 21.0618 19.93 20.8541C20.0398 20.3237 20.1366 19.8006 20.1292 19.2572C20.1292 19.1274 19.9375 19.1292 19.93 19.2572H19.9282Z" fill="#489391"/>
<path d="M25.1577 18.8862C25.2415 19.1811 25.2173 19.4741 25.1856 19.7746C25.1633 19.9879 25.543 19.9879 25.5188 19.7746C25.4815 19.4463 25.4387 19.1291 25.2787 18.8342C25.2415 18.7675 25.1354 18.8138 25.1577 18.8843V18.8862Z" fill="#489391"/>
<path d="M13.5392 47.6864C13.394 48.5117 13.1651 49.3185 13.0199 50.1439C12.9902 50.3108 13.247 50.3832 13.2768 50.2144C13.4219 49.389 13.6508 48.5822 13.796 47.7569C13.8258 47.5899 13.569 47.5176 13.5392 47.6864Z" fill="#489391"/>
<path d="M16.0404 47.755C15.912 48.1872 15.8115 48.6249 15.6831 49.057C15.5603 49.4725 16.1856 49.6338 16.3252 49.2332C16.4759 48.8085 16.5988 48.3726 16.7476 47.9479C16.9021 47.5046 16.1744 47.3006 16.0404 47.755Z" fill="#489391"/>
<path d="M26.3863 51.4421C34.7963 54.1908 39.4676 77.8144 35.3751 88.8167C31.279 99.8189 15.5066 106.333 5.06052 93.6742C-4.02326 82.6645 2.9352 68.1829 6.88621 60.8511C10.72 53.742 16.7888 48.3039 26.3844 51.4421H26.3863Z" fill="#E1A984"/>
<path d="M1.75129 53.1411C1.95414 52.5643 1.99695 51.9745 2.0993 51.3717C2.17933 50.8988 2.43988 50.3572 2.2426 49.8991C2.17747 49.7507 1.95973 49.7173 1.83131 49.7915C1.40886 50.0382 1.33441 50.6892 1.206 51.125C1.0199 51.7556 0.850541 52.364 0.898928 53.0243C0.936149 53.5158 1.58565 53.6067 1.75129 53.1374V53.1411Z" fill="#489391"/>
<path d="M32.1422 49.4205C32.0101 49.7099 33.994 63.2827 31.543 76.1397C30.0672 83.8887 34.6844 89.8758 38.4679 82.3567C42.2533 74.8395 42.6274 60.6954 42.6274 60.6954L32.1422 49.4205Z" fill="#295654"/>
<path d="M34.8668 67.649C35.5964 61.4042 34.4295 55.2984 32.1385 49.4468C32.0585 50.0607 33.9624 63.4444 31.543 76.14C30.726 80.4318 31.7794 84.1783 33.5232 85.3932C32.9425 84.412 32.6019 83.2936 32.654 81.9805C32.9704 77.0989 34.2341 72.5307 34.8668 67.649Z" fill="#489391"/>
<path d="M36.5865 51.3458C36.5976 50.8005 36.5902 50.2663 36.4822 49.7303C36.4227 49.4391 35.9593 49.5615 36.0319 49.8546C36.1528 50.3479 36.177 50.8413 36.1863 51.3458C36.1919 51.6017 36.5809 51.6036 36.5865 51.3458Z" fill="#489391"/>
<path d="M28.463 35.8754C28.463 35.8754 30.231 43.5261 29.2558 44.1586C28.2769 44.7892 22.0517 45.7425 21.7874 44.8671C21.5231 43.9935 21.9363 36.0367 21.9363 36.0367L28.4648 35.8735L28.463 35.8754Z" fill="white"/>
<path d="M25.1857 36.6489C25.1819 36.6081 25.2415 36.6025 25.2489 36.6433C25.8445 39.4662 26.3041 42.38 26.2688 45.2715C26.2632 45.5608 25.8742 45.5998 25.8203 45.3142C25.262 42.4746 25.4313 39.5237 25.1857 36.6489Z" fill="#295654"/>
<path d="M16.5021 25.7153C16.6323 27.0933 17.3228 28.1542 18.0374 28.0875C18.7558 28.0207 19.2285 26.8485 19.0964 25.4686C18.9642 24.0887 18.2775 23.0278 17.561 23.0964C16.8463 23.1632 16.3699 24.3354 16.5021 25.7134V25.7153Z" fill="#2B333D"/>
<path d="M27.7372 25.1533C27.8693 26.5313 28.5542 27.5941 29.2707 27.5254C29.9872 27.4568 30.4618 26.2846 30.3296 24.9066C30.1975 23.5267 29.5108 22.4658 28.7943 22.5325C28.0796 22.6012 27.6051 23.7733 27.7372 25.1533Z" fill="#2B333D"/>
<path d="M26.3395 31.1218C26.3395 31.1218 32.9872 31.7505 33.7744 35.2727C34.5616 38.7966 31.744 41.4044 29.8774 40.7701C28.0126 40.1376 25.2992 36.2927 25.2992 36.2927C25.2992 36.2927 22.9282 42.6507 18.5343 42.0072C14.1404 41.3636 13.5095 36.6544 14.9481 34.7218C16.3885 32.7873 19.6081 30.5913 26.3377 31.1199L26.3395 31.1218Z" fill="#E1A984"/>
<path d="M21.6292 32.83C21.7985 34.6012 23.7582 35.8662 26.0045 35.6529C28.2527 35.4396 29.9388 33.8278 29.7694 32.0584C29.6001 30.2871 27.6404 29.0241 25.3904 29.2355C23.1441 29.4488 21.4598 31.0587 21.6292 32.83Z" fill="#2B333D"/>
<path d="M16.9747 35.7048C17.4474 35.7048 17.4474 34.974 16.9747 34.974C16.502 34.974 16.502 35.7048 16.9747 35.7048Z" fill="#FFBC8F"/>
<path d="M17.1143 36.94C17.0975 36.9363 17.0789 36.9344 17.0622 36.9307C16.8054 36.8788 16.6006 37.0828 16.6527 37.3388C16.6565 37.3555 16.6602 37.3722 16.6621 37.3889C16.8221 38.179 17.9071 37.0995 17.1124 36.94H17.1143Z" fill="#FFBC8F"/>
<path d="M18.3388 38.2588C17.9946 38.2588 17.9946 38.7911 18.3388 38.7911C18.6831 38.7911 18.6831 38.2588 18.3388 38.2588Z" fill="#FFBC8F"/>
<path d="M21.2086 36.3465C20.9239 35.9941 20.3544 36.2983 20.3544 36.6989C20.3544 37.0996 20.922 37.4056 21.2086 37.0513C21.2142 37.0439 21.2216 37.0365 21.2272 37.0272C21.4003 36.8139 21.4003 36.5839 21.2272 36.3706C21.2216 36.3614 21.2142 36.354 21.2086 36.3465Z" fill="#FFBC8F"/>
<path d="M19.1856 35.5175C19.1596 35.5064 19.1354 35.4953 19.1093 35.486C18.5771 35.2616 18.5771 36.3503 19.1093 36.1259C19.1354 36.1147 19.1596 36.1036 19.1856 36.0943C19.4685 35.9756 19.4685 35.6381 19.1856 35.5175Z" fill="#FFBC8F"/>
<path d="M20.5144 33.6702C20.1702 33.6702 20.1702 34.2025 20.5144 34.2025C20.8587 34.2025 20.8587 33.6702 20.5144 33.6702Z" fill="#FFBC8F"/>
<path d="M28.958 35.4766C29.3023 35.4766 29.3023 34.9443 28.958 34.9443C28.6137 34.9443 28.6137 35.4766 28.958 35.4766Z" fill="#FFBC8F"/>
<path d="M29.213 37.0829C28.6119 37.0829 28.6119 38.0121 29.213 38.0121C29.8141 38.0121 29.816 37.0829 29.213 37.0829Z" fill="#FFBC8F"/>
<path d="M32.2837 36.3613C31.6807 36.3613 31.6807 37.2905 32.2837 37.2905C32.8867 37.2905 32.8848 36.3613 32.2837 36.3613Z" fill="#FFBC8F"/>
<path d="M30.6627 35.8606C30.4059 35.8606 30.4059 36.2594 30.6627 36.2594C30.9195 36.2594 30.9214 35.8606 30.6627 35.8606Z" fill="#FFBC8F"/>
<path d="M31.3886 33.7462C31.0871 33.7462 31.0871 34.2099 31.3886 34.2099C31.6901 34.2099 31.6901 33.7462 31.3886 33.7462Z" fill="#FFBC8F"/>
</svg>
