<svg width="23" height="24" viewBox="0 0 23 24" fill="none" xmlns="http://www.w3.org/2000/svg">
<path d="M8.35797 21.6485V18.2751C8.35795 17.4171 9.06081 16.7199 9.93165 16.7142H13.1215C13.9965 16.7142 14.7058 17.413 14.7058 18.2751V21.659C14.7056 22.3875 15.2958 22.9829 16.0349 23H18.1615C20.2815 23 22 21.3067 22 19.218V9.62162C21.9887 8.79991 21.5971 8.02828 20.9367 7.52634L13.6638 1.75383C12.3897 0.748723 10.5784 0.748723 9.3043 1.75383L2.06329 7.53681C1.40039 8.03672 1.00816 8.80963 1 9.6321V19.218C1 21.3067 2.71855 23 4.83848 23H6.96506C7.7226 23 8.33671 22.3949 8.33671 21.6485" stroke="white" stroke-width="1.5" stroke-linecap="round" stroke-linejoin="round"/>
</svg>
