<svg width="21" height="29" viewBox="0 0 21 29" fill="currentColor" xmlns="http://www.w3.org/2000/svg">
    <path d="M20.4899 14.714C16.5113 14.714 11.3675 14.714 7.38441 14.714H3.82534L5.91607 12.6892C8.86194 9.83704 12.2417 6.5627 15.1828 3.71478L15.6252 3.28637C15.8246 3.09359 15.8246 2.78019 15.6252 2.58741L13.1029 0.144834C12.9035 -0.0482781 12.5806 -0.0482781 12.3812 0.144834L9.41661 3.01549C6.85356 5.49959 3.34588 8.89323 0.782491 11.377L0.149556 11.9899C-0.0498521 12.1827 -0.0498521 12.4961 0.149556 12.6889C0.168272 12.6995 2.667 15.1387 2.6881 15.142C2.68504 15.1638 2.6813 15.1855 2.6813 15.2079V18.6622V28.5057C2.6813 28.7789 2.90963 29 3.19173 29H20.4896C20.7717 29 21 28.7789 21 28.5057V18.6625V15.2083C21.0003 14.9351 20.772 14.714 20.4899 14.714ZM19.8063 15.7026H19.9798V18.1682H17.2602L19.8063 15.7026ZM15.8164 18.1682H13.1901L15.7361 15.7026H18.3624L15.8164 18.1682ZM11.7466 18.1682H9.11988L11.6659 15.7026H14.2926L11.7466 18.1682ZM7.67638 18.1682H5.05004L7.59607 15.7026H10.2224L7.67638 18.1682ZM3.7025 18.075V15.7026H6.15223L3.7025 18.075ZM12.7422 1.19344L14.4743 2.87082H11.0102L12.7422 1.19344ZM9.98931 3.85945H13.5902L11.7329 5.6581H8.13202L9.98931 3.85945ZM7.1115 6.64673H10.7121L8.85479 8.44538H5.25421L7.1115 6.64673ZM4.23335 9.43368H7.83427L5.97698 11.2323H2.37606L4.23335 9.43368ZM1.23269 12.3396L1.3552 12.221H4.95612L3.03315 14.0832L1.23269 12.3396ZM3.7025 28.0114V19.1569H3.81752C3.81752 19.1569 16.3905 19.1565 19.9795 19.1569V28.0114H3.7025Z" fill="white"/>
</svg>
